<svg width="128" height="32" viewBox="0 0 128 32" fill="none" xmlns="http://www.w3.org/2000/svg">
<rect width="128" height="32" fill="white"/>
<path d="M25.4399 24H36.5999C40.2959 24 43.4399 22.704 43.4399 18.984C43.4399 16.704 42.1679 15.48 40.3439 14.856C41.7359 14.208 42.3839 13.08 42.3839 11.736C42.3839 9.12003 40.3919 7.68003 36.5759 7.68003H25.4399V24ZM29.9999 13.752V11.256H36.1439C37.3679 11.256 37.8719 11.688 37.8719 12.504C37.8719 13.32 37.3679 13.752 36.1439 13.752H29.9999ZM29.9999 20.424V16.872H36.3119C37.9919 16.872 38.7599 17.4 38.7599 18.624C38.7599 19.896 37.9919 20.424 36.3119 20.424H29.9999Z" fill="black"/>
<path d="M48.7379 24.264C51.3539 24.264 53.8019 23.136 54.8579 21.432C54.7619 22.248 54.7619 23.136 54.7139 24H58.7459V16.536C58.7459 13.776 57.1139 12.576 53.4179 12.576C51.4499 12.576 49.0739 12.96 46.0259 13.68V17.376L47.9219 16.848C49.9619 16.248 51.9299 15.912 53.2259 15.912C54.1859 15.912 54.5939 16.08 54.5939 16.512C54.5939 16.824 54.3539 16.992 53.6819 17.136L49.4579 17.832C46.2419 18.408 44.8499 19.368 44.8499 21.264C44.8499 23.232 46.3139 24.264 48.7379 24.264ZM50.4179 21.384C49.3379 21.384 48.8339 21.12 48.8339 20.544C48.8339 19.992 49.2419 19.728 50.2019 19.512L52.9859 19.056C53.6819 18.912 54.3779 18.696 54.6419 18.456V18.528C54.6419 20.04 52.7939 21.384 50.4179 21.384Z" fill="black"/>
<path d="M61.1062 24H65.5942V7.68003H61.1062V24Z" fill="black"/>
<path d="M73.0368 20.544L80.4048 15.816V12.816H67.9488V16.176H75.1008L67.6128 20.88V24H80.5488V20.544H73.0368Z" fill="black"/>
<path d="M86.6298 12.024L89.2698 9.43203L86.6298 6.84003L84.0138 9.43203L86.6298 12.024ZM92.5818 12.024L95.1978 9.43203L92.5818 6.84003L89.9418 9.43203L92.5818 12.024ZM85.9098 24.264C88.5258 24.264 90.9738 23.136 92.0298 21.432C91.9338 22.248 91.9338 23.136 91.8858 24H95.9178V16.536C95.9178 13.776 94.2858 12.576 90.5898 12.576C88.6218 12.576 86.2458 12.96 83.1978 13.68V17.376L85.0938 16.848C87.1338 16.248 89.1018 15.912 90.3978 15.912C91.3578 15.912 91.7658 16.08 91.7658 16.512C91.7658 16.824 91.5258 16.992 90.8538 17.136L86.6298 17.832C83.4138 18.408 82.0218 19.368 82.0218 21.264C82.0218 23.232 83.4858 24.264 85.9098 24.264ZM87.5898 21.384C86.5098 21.384 86.0058 21.12 86.0058 20.544C86.0058 19.992 86.4138 19.728 87.3738 19.512L90.1578 19.056C90.8538 18.912 91.5498 18.696 91.8138 18.456V18.528C91.8138 20.04 89.9658 21.384 87.5898 21.384Z" fill="black"/>
<path d="M98.2781 24H102.766V18.696L104.278 17.664C105.334 16.896 106.27 16.632 107.182 16.632C107.902 16.632 108.478 16.8 108.958 17.016L109.654 17.352V12.864C109.222 12.72 108.622 12.576 107.926 12.576C105.958 12.576 104.686 13.896 102.574 16.104C102.622 15.072 102.622 13.848 102.622 12.816H98.2781V24Z" fill="black"/>
<path d="M122.847 12.816L119.199 19.512L115.359 12.816H110.367L116.871 23.712C116.079 24.888 115.335 25.32 114.303 25.32C113.679 25.32 113.079 25.224 112.359 25.056L111.015 24.696V28.272C112.263 28.584 113.463 28.776 114.639 28.776C117.879 28.776 119.175 27.192 120.759 24.6L127.575 12.816H122.847Z" fill="black"/>
<circle cx="8" cy="17" r="8" fill="url(#paint0_linear)"/>
<defs>
<linearGradient id="paint0_linear" x1="2.66667" y1="11.2222" x2="12.4444" y2="23.2222" gradientUnits="userSpaceOnUse">
<stop stop-color="#008DF2"/>
<stop offset="0.755208" stop-color="#2BEDFA"/>
</linearGradient>
</defs>
</svg>
