<svg width="128" height="32" viewBox="0 0 128 32" fill="none" xmlns="http://www.w3.org/2000/svg">
<rect width="128" height="32" fill="white"/>
<path d="M50.0079 7.68001H43.5759L34.0479 14.928V7.68001H29.4399V24H34.0479V19.368L37.6239 16.704L44.1039 24H50.0079L41.4159 14.352L50.0079 7.68001Z" fill="black"/>
<path d="M53.3689 12.264L56.1529 9.52801L53.3689 6.76801L50.6089 9.52801L53.3689 12.264ZM51.1609 24H55.6489V12.816H51.1609V24Z" fill="black"/>
<path d="M71.9486 17.832C71.9486 14.328 69.0446 12.576 64.7966 12.576C60.4766 12.576 57.3806 14.448 57.3806 18.384C57.3806 22.56 60.5006 24.24 64.9166 24.24C67.1966 24.24 69.3326 23.856 71.4446 23.28V19.656L69.2366 20.28C67.4846 20.712 66.3566 20.952 65.1566 20.952C62.9246 20.952 61.7726 20.328 61.6286 18.96H71.8766C71.9246 18.576 71.9486 18.216 71.9486 17.832ZM61.6286 17.232C61.8446 16.032 63.1166 15.528 64.7486 15.528C66.5006 15.528 67.6046 16.008 67.8206 17.232H61.6286Z" fill="black"/>
<path d="M78.1433 24.24C80.1593 24.24 81.7193 23.328 84.8873 21.48C84.8393 22.368 84.8393 22.92 84.8393 24H89.1833V7.68001H84.6953V15.264C81.8153 13.584 80.1353 12.576 78.1193 12.576C75.3113 12.576 73.4633 14.52 73.4633 18.408C73.4633 22.296 75.2873 24.24 78.1433 24.24ZM79.8473 20.784C78.5753 20.784 77.8793 20.136 77.8793 18.408C77.8793 16.68 78.5753 16.032 79.8473 16.032C80.6153 16.032 81.4073 16.344 83.3033 17.352L85.1273 18.408L83.3033 19.464C81.4073 20.472 80.6153 20.784 79.8473 20.784Z" fill="black"/>
<path d="M88.4034 11.304H92.1474L94.5954 9.79201L97.0434 11.304H100.811L97.0674 7.68001H92.1474L88.4034 11.304ZM92.3874 24H96.8754V12.816H92.3874V24Z" fill="black"/>
<path d="M105.998 24.264C109.934 24.264 111.71 23.016 111.71 20.64C111.71 18.768 110.462 17.928 107.366 17.448L104.246 17.04C103.19 16.824 102.782 16.704 102.782 16.344C102.782 16.008 103.19 15.84 104.366 15.84C105.422 15.84 107.15 16.104 108.398 16.416L110.462 16.944V13.368C108.23 12.864 106.118 12.576 104.414 12.576C100.742 12.576 98.9661 13.848 98.9661 16.008C98.9661 17.904 100.262 18.72 103.31 19.2L106.406 19.608C107.486 19.8 107.87 19.992 107.87 20.376C107.87 20.784 107.39 21 106.238 21C104.294 21 102.398 20.52 100.814 20.064L99.0861 19.584V23.328C101.39 23.904 103.838 24.264 105.998 24.264Z" fill="black"/>
<circle cx="12" cy="16" r="8" fill="url(#paint0_linear)"/>
<defs>
<linearGradient id="paint0_linear" x1="6.66667" y1="10.2222" x2="16.4444" y2="22.2222" gradientUnits="userSpaceOnUse">
<stop offset="0.276042" stop-color="#FC5209"/>
<stop offset="1" stop-color="#FFDF39"/>
</linearGradient>
</defs>
</svg>
