<svg width="40" height="40" viewBox="0 0 40 40" fill="none" xmlns="http://www.w3.org/2000/svg">
<path d="M18.7773 0.279101L2.63583 9.135C1.96161 9.50717 1.41602 10.4286 1.41602 11.195V28.805C1.41602 29.5714 1.96161 30.4972 2.63583 30.865L18.7773 39.7209C19.4515 40.093 20.5472 40.093 21.2214 39.7209L37.3628 30.865C38.0371 30.4928 38.5827 29.5714 38.5827 28.805V11.195C38.5827 10.4286 38.0371 9.50275 37.3628 9.135L21.2214 0.279101C20.8842 0.0930333 20.4407 0 20.0016 0C19.558 0 19.1144 0.0930333 18.7773 0.279101Z" fill="#00C0FD"/>
<path d="M14.0219 15.4219C14.0264 15.4219 14.0264 15.4219 14.0308 15.4219C14.0264 15.4219 14.0264 15.4219 14.0219 15.4219ZM14.0175 15.4219C14.0175 15.4219 14.0219 15.4219 14.0175 15.4219C14.0175 15.4219 14.0175 15.4219 14.0131 15.4219H14.0175ZM13.9953 15.4175C13.9997 15.4175 13.9997 15.4175 13.9953 15.4175C13.9997 15.4175 13.9997 15.4175 13.9997 15.4175C13.9997 15.4175 13.9997 15.4175 13.9953 15.4175ZM9.95441 18.9395H11.2762V12.4537H9.95441V18.9395ZM14.0973 15.4263C14.0973 15.4263 14.0973 15.4307 14.0973 15.4263C14.0973 15.4307 14.0973 15.4307 14.0973 15.4263ZM14.0796 15.4263C14.0885 15.4263 14.0929 15.4263 14.0973 15.4263C14.0929 15.4263 14.0841 15.4263 14.0796 15.4263ZM14.0442 15.4219C14.0486 15.4219 14.0486 15.4219 14.053 15.4219C14.053 15.4219 14.0486 15.4219 14.0442 15.4219ZM13.9953 15.4175V13.4682C14.2659 13.4327 14.5676 13.415 14.8248 13.415C15.7741 13.415 16.0978 13.703 16.0978 14.4207C16.0978 15.2447 15.6143 15.4529 14.7982 15.4529C14.5409 15.4529 14.2881 15.4485 14.0308 15.4219C14.0264 15.4219 14.0264 15.4219 14.0219 15.4219H14.0175C14.0175 15.4219 14.0131 15.4219 14.0087 15.4219H14.0131H14.0087H14.0042C14.0042 15.4219 14.0042 15.4219 14.0087 15.4219H14.0042C14.0042 15.4175 13.9997 15.4175 13.9953 15.4175C13.9953 15.4175 13.9997 15.4175 13.9953 15.4175ZM12.6824 12.5644V18.9395H13.9953V16.463C14.226 16.4762 14.5232 16.4896 14.7893 16.4896L16.12 18.935H17.6371L16.1555 16.3389C16.9185 16.1086 17.4019 15.5681 17.4019 14.4207C17.4019 12.6663 16.2265 12.3828 14.7937 12.3828C14.0175 12.3872 13.2457 12.4626 12.6824 12.5644ZM19.7883 15.6966C19.7883 14.3719 19.815 13.4682 21.0481 13.4682C22.2767 13.4682 22.3078 14.3719 22.3078 15.6966C22.3078 17.0167 22.2767 17.9205 21.0481 17.9205C19.8194 17.9205 19.7883 17.0167 19.7883 15.6966ZM18.4532 15.6966C18.4532 18.0446 19.0298 19.0059 21.0525 19.0059C23.0707 19.0059 23.6474 18.0446 23.6474 15.6966C23.6474 13.3486 23.0707 12.3872 21.0525 12.3872C19.0298 12.3872 18.4532 13.3486 18.4532 15.6966ZM24.8805 13.3707V18.935H26.0648V14.1637L28.1275 18.1509C28.4602 18.7977 28.7662 19.0059 29.2497 19.0059C29.7553 19.0059 30.0437 18.7047 30.0437 18.018V12.4537H28.8593V17.2072L26.7967 13.2378C26.4685 12.6132 26.127 12.3872 25.6789 12.3872C25.1822 12.3872 24.8805 12.6797 24.8805 13.3707Z" fill="white"/>
<path d="M13.7471 21.3576V24.1397H10.2651V21.3576H9.74609V27.52H10.2651V24.5916H13.7471V27.52H14.2661V21.3576H13.7471ZM29.5115 21.3576L26.6594 24.2106V21.3576H26.1404V27.52H26.6594V24.4942L29.5648 27.52H30.2568L27.1828 24.3347L30.1724 21.3576H29.5115ZM18.0187 21.9867L19.2429 25.2562H16.79L18.0187 21.9867ZM17.6505 21.6456L15.406 27.5155H15.9383L16.6258 25.6858H19.407L20.0902 27.5155H20.6446L18.4268 21.6456C18.338 21.4152 18.2183 21.2956 18.0364 21.2956C17.8545 21.2956 17.7393 21.4107 17.6505 21.6456ZM21.168 24.4366C21.168 26.6207 21.6471 27.582 23.6254 27.582C24.1355 27.582 24.5879 27.5288 24.9738 27.4535L24.925 27.0371C24.5835 27.0858 24.2419 27.1301 23.8959 27.1301C21.9487 27.1301 21.6958 26.2485 21.6958 24.441C21.6958 22.6379 21.9088 21.7474 23.8959 21.7474C24.2287 21.7474 24.6057 21.7962 24.9206 21.8449L24.9694 21.4152C24.5835 21.3398 24.1178 21.2956 23.6209 21.2956C21.6471 21.2956 21.168 22.2481 21.168 24.4366Z" fill="white"/>
</svg>
