<svg width="135" height="103" viewBox="0 0 135 103" fill="none" xmlns="http://www.w3.org/2000/svg">
<path d="M12.3462 11H13.8824V7.42045H15.9705C18.332 7.42045 19.5003 5.9936 19.5003 4.11434C19.5003 2.24005 18.3419 0.818176 15.9755 0.818176H12.3462V11ZM13.8824 6.11789V2.13565H15.8114C17.3327 2.13565 17.9541 2.96093 17.9541 4.11434C17.9541 5.26775 17.3327 6.11789 15.8313 6.11789H13.8824Z" fill="white"/>
<path d="M22.6685 0.818176H21.182V11H22.6685V0.818176Z" fill="white"/>
<path d="M26.8906 11.169C28.1534 11.169 28.8643 10.5277 29.1477 9.95596H29.2073V11H30.659V5.92897C30.659 3.70667 28.909 3.2642 27.696 3.2642C26.3139 3.2642 25.0411 3.82102 24.544 5.21306L25.941 5.53124C26.1598 4.98934 26.7166 4.46732 27.7159 4.46732C28.6754 4.46732 29.1676 4.96945 29.1676 5.83451V5.86931C29.1676 6.41122 28.6108 6.40127 27.2386 6.56036C25.7919 6.7294 24.3103 7.10724 24.3103 8.84232C24.3103 10.3437 25.4389 11.169 26.8906 11.169ZM27.2137 9.97585C26.3735 9.97585 25.767 9.59801 25.767 8.86221C25.767 8.06676 26.473 7.78338 27.3331 7.66903C27.8153 7.6044 28.9588 7.47514 29.1725 7.26136V8.24573C29.1725 9.15056 28.4517 9.97585 27.2137 9.97585Z" fill="white"/>
<path d="M33.3052 13.8437C34.5332 13.8437 35.3137 13.2024 35.7512 12.0192L38.9082 3.37855L37.3023 3.36363L35.3684 9.28977H35.2888L33.3549 3.36363H31.764L34.558 11.0994L34.3741 11.6065C33.9962 12.5959 33.4643 12.6854 32.6489 12.4616L32.291 13.6797C32.4699 13.7642 32.8577 13.8437 33.3052 13.8437Z" fill="white"/>
<path d="M43.3267 11.1541C44.9921 11.1541 46.1704 10.3338 46.5085 9.0909L45.1015 8.83735C44.8331 9.55823 44.1867 9.92613 43.3416 9.92613C42.0688 9.92613 41.2137 9.10085 41.174 7.62926H46.6029V7.10227C46.6029 4.34303 44.9524 3.2642 43.2223 3.2642C41.0944 3.2642 39.6924 4.88494 39.6924 7.23153C39.6924 9.60298 41.0745 11.1541 43.3267 11.1541ZM41.1789 6.51562C41.2386 5.43181 42.0241 4.49218 43.2322 4.49218C44.3856 4.49218 45.1413 5.3473 45.1463 6.51562H41.1789Z" fill="white"/>
<path d="M48.2523 11H49.7388V6.33664C49.7388 5.33735 50.5094 4.61647 51.5633 4.61647C51.8716 4.61647 52.2196 4.67116 52.3389 4.70596V3.28409C52.1898 3.2642 51.8964 3.24928 51.7075 3.24928C50.8126 3.24928 50.047 3.75639 49.7686 4.5767H49.6891V3.36363H48.2523V11Z" fill="white"/>
<path d="M61.1734 0.818176H59.677L57.1365 2.47869V3.95028L59.5726 2.35937H59.6322V11H61.1734V0.818176Z" fill="white"/>
<path d="M68.6321 4.63636C69.174 4.63636 69.6264 4.19389 69.6264 3.64204C69.6264 3.10014 69.174 2.65269 68.6321 2.65269C68.0852 2.65269 67.6377 3.10014 67.6377 3.64204C67.6377 4.19389 68.0852 4.63636 68.6321 4.63636ZM68.6321 9.73721C69.174 9.73721 69.6264 9.29474 69.6264 8.74289C69.6264 8.20099 69.174 7.75355 68.6321 7.75355C68.0852 7.75355 67.6377 8.20099 67.6377 8.74289C67.6377 9.29474 68.0852 9.73721 68.6321 9.73721Z" fill="white"/>
<path d="M76.302 11L77.2366 8.30539H81.2139L82.1436 11H83.7743L80.1102 0.818176H78.3354L74.6713 11H76.302ZM77.6841 7.01278L79.1855 2.66761H79.2651L80.7665 7.01278H77.6841Z" fill="white"/>
<path d="M88.2114 3.36363H86.6454V1.53409H85.1589V3.36363H84.0403V4.55681H85.1589V9.06605C85.1539 10.4531 86.2129 11.1243 87.3861 11.0994C87.8584 11.0945 88.1766 11.005 88.3506 10.9403L88.0822 9.71235C87.9827 9.73224 87.7988 9.77698 87.5602 9.77698C87.0779 9.77698 86.6454 9.61789 86.6454 8.75781V4.55681H88.2114V3.36363Z" fill="white"/>
<path d="M93.4204 3.36363H91.8544V1.53409H90.3679V3.36363H89.2492V4.55681H90.3679V9.06605C90.3629 10.4531 91.4218 11.1243 92.5951 11.0994C93.0674 11.0945 93.3856 11.005 93.5596 10.9403L93.2912 9.71235C93.1917 9.73224 93.0078 9.77698 92.7691 9.77698C92.2869 9.77698 91.8544 9.61789 91.8544 8.75781V4.55681H93.4204V3.36363Z" fill="white"/>
<path d="M97.2871 11.169C98.5498 11.169 99.2608 10.5277 99.5442 9.95596H99.6038V11H101.056V5.92897C101.056 3.70667 99.3055 3.2642 98.0925 3.2642C96.7104 3.2642 95.4376 3.82102 94.9405 5.21306L96.3375 5.53124C96.5562 4.98934 97.1131 4.46732 98.1124 4.46732C99.0719 4.46732 99.5641 4.96945 99.5641 5.83451V5.86931C99.5641 6.41122 99.0072 6.40127 97.6351 6.56036C96.1883 6.7294 94.7068 7.10724 94.7068 8.84232C94.7068 10.3437 95.8354 11.169 97.2871 11.169ZM97.6102 9.97585C96.77 9.97585 96.1635 9.59801 96.1635 8.86221C96.1635 8.06676 96.8695 7.78338 97.7295 7.66903C98.2118 7.6044 99.3552 7.47514 99.569 7.26136V8.24573C99.569 9.15056 98.8481 9.97585 97.6102 9.97585Z" fill="white"/>
<path d="M106.252 11.1541C108.057 11.1541 109.225 10.0703 109.389 8.5838H107.942C107.754 9.40909 107.112 9.8963 106.262 9.8963C105.004 9.8963 104.194 8.8473 104.194 7.18181C104.194 5.54616 105.019 4.51704 106.262 4.51704C107.207 4.51704 107.783 5.11363 107.942 5.82954H109.389C109.23 4.28835 107.972 3.2642 106.237 3.2642C104.084 3.2642 102.692 4.88494 102.692 7.21661C102.692 9.51846 104.035 11.1541 106.252 11.1541Z" fill="white"/>
<path d="M110.979 11H112.465V8.29048L113.206 7.54971L115.801 11H117.626L114.325 6.63991L117.417 3.36363H115.637L112.595 6.59516H112.465V0.818176H110.979V11Z" fill="white"/>
<rect x="29.3" y="39.5" width="27.8" height="27.8" rx="1.5" stroke="#929292"/>
<path d="M40.0024 58.2H41.3319L43.1685 51.6631H43.2367L45.0734 58.2H46.3987L48.8234 49.4727H47.4342L45.7382 56.2355H45.6572L43.8887 49.4727H42.5166L40.7481 56.2312H40.6671L38.9668 49.4727H37.5819L40.0024 58.2Z" fill="white"/>
<rect x="35.7" y="74.7" width="27.8" height="27.8" rx="1.5" stroke="#929292"/>
<path d="M51.4574 86.9653H52.7273C52.6889 85.5676 51.4531 84.5534 49.6804 84.5534C47.929 84.5534 46.5867 85.5548 46.5867 87.0591C46.5867 88.2736 47.456 88.9852 48.858 89.3645L49.8892 89.6457C50.8225 89.8929 51.5426 90.1997 51.5426 90.9753C51.5426 91.8276 50.7287 92.3901 49.608 92.3901C48.5938 92.3901 47.75 91.9383 47.6733 90.9881H46.3523C46.4375 92.569 47.6605 93.5449 49.6165 93.5449C51.6662 93.5449 52.8466 92.4668 52.8466 90.9881C52.8466 89.4156 51.4446 88.8062 50.3367 88.5335L49.4844 88.3119C48.8026 88.1372 47.8949 87.8176 47.8992 86.9824C47.8992 86.2409 48.5767 85.6912 49.6506 85.6912C50.652 85.6912 51.3636 86.1599 51.4574 86.9653Z" fill="white"/>
<rect x="70.9" y="74.7" width="27.8" height="27.8" rx="1.5" stroke="#929292"/>
<path d="M84.6541 93.4C87.3132 93.4 88.8515 91.7508 88.8515 89.0236C88.8515 86.3091 87.3132 84.6727 84.7436 84.6727H81.8288V93.4H84.6541ZM83.1455 92.2494V85.8233H84.6626C86.5717 85.8233 87.5561 86.9653 87.5561 89.0236C87.5561 91.0903 86.5717 92.2494 84.5816 92.2494H83.1455Z" fill="white"/>
<rect x="105.6" y="74.2" width="28.8" height="28.8" rx="2" fill="#2339FF"/>
<path d="M117.843 93.4H119.16V89.5946H122.867V88.4653H119.16V85.8062H123.255V84.6727H117.843V93.4Z" fill="white"/>
<rect x="0.5" y="74.7" width="27.8" height="27.8" rx="1.5" stroke="#929292"/>
<path d="M11.8949 93.4L12.696 91.0903H16.1051L16.902 93.4H18.2997L15.1591 84.6727H13.6378L10.4971 93.4H11.8949ZM13.0795 89.9824L14.3665 86.2579H14.4346L15.7216 89.9824H13.0795Z" fill="white"/>
</svg>
