<svg width="135" height="103" viewBox="0 0 135 103" fill="none" xmlns="http://www.w3.org/2000/svg">
<path d="M14.3618 11H15.898V7.42043H17.9861C20.3476 7.42043 21.5159 5.99359 21.5159 4.11432C21.5159 2.24003 20.3576 0.81816 17.9911 0.81816H14.3618V11ZM15.898 6.11788V2.13563H17.827C19.3483 2.13563 19.9698 2.96092 19.9698 4.11432C19.9698 5.26773 19.3483 6.11788 17.8469 6.11788H15.898Z" fill="white"/>
<path d="M24.6841 0.81816H23.1976V11H24.6841V0.81816Z" fill="white"/>
<path d="M28.9062 11.169C30.169 11.169 30.8799 10.5277 31.1633 9.95594H31.223V11H32.6747V5.92896C32.6747 3.70665 30.9247 3.26418 29.7116 3.26418C28.3295 3.26418 27.0568 3.821 26.5596 5.21305L27.9566 5.53123C28.1754 4.98932 28.7322 4.46731 29.7315 4.46731C30.691 4.46731 31.1832 4.96944 31.1832 5.83449V5.8693C31.1832 6.4112 30.6264 6.40126 29.2542 6.56035C27.8075 6.72938 26.326 7.10722 26.326 8.84231C26.326 10.3437 27.4545 11.169 28.9062 11.169ZM29.2294 9.97583C28.3892 9.97583 27.7826 9.59799 27.7826 8.86219C27.7826 8.06674 28.4886 7.78336 29.3487 7.66901C29.8309 7.60438 30.9744 7.47512 31.1882 7.26134V8.24572C31.1882 9.15055 30.4673 9.97583 29.2294 9.97583Z" fill="white"/>
<path d="M35.3208 13.8437C36.5488 13.8437 37.3293 13.2024 37.7668 12.0192L40.9238 3.37853L39.318 3.36361L37.384 9.28975H37.3045L35.3705 3.36361H33.7796L36.5736 11.0994L36.3897 11.6065C36.0119 12.5959 35.4799 12.6853 34.6646 12.4616L34.3066 13.6797C34.4856 13.7642 34.8734 13.8437 35.3208 13.8437Z" fill="white"/>
<path d="M45.3423 11.1541C47.0078 11.1541 48.186 10.3338 48.5241 9.09089L47.1171 8.83734C46.8487 9.55822 46.2024 9.92611 45.3572 9.92611C44.0845 9.92611 43.2294 9.10083 43.1896 7.62924H48.6186V7.10225C48.6186 4.34302 46.968 3.26418 45.2379 3.26418C43.11 3.26418 41.7081 4.88492 41.7081 7.23151C41.7081 9.60296 43.0902 11.1541 45.3423 11.1541ZM43.1946 6.5156C43.2542 5.4318 44.0397 4.49217 45.2478 4.49217C46.4012 4.49217 47.1569 5.34728 47.1619 6.5156H43.1946Z" fill="white"/>
<path d="M50.2679 11H51.7544V6.33663C51.7544 5.33734 52.525 4.61646 53.579 4.61646C53.8872 4.61646 54.2352 4.67114 54.3545 4.70594V3.28407C54.2054 3.26418 53.9121 3.24927 53.7231 3.24927C52.8283 3.24927 52.0626 3.75637 51.7842 4.57668H51.7047V3.36361H50.2679V11Z" fill="white"/>
<path d="M59.3261 11H66.0278V9.68251H61.444V9.60793L63.4675 7.49004C65.3318 5.6058 65.8638 4.70594 65.8638 3.56745C65.8638 1.9318 64.5314 0.678955 62.6124 0.678955C60.7082 0.678955 59.3162 1.91191 59.3162 3.77128H60.7828C60.7778 2.67753 61.4838 1.96163 62.5825 1.96163C63.6166 1.96163 64.4021 2.59799 64.4021 3.61219C64.4021 4.51205 63.8652 5.15836 62.7714 6.31674L59.3261 9.88634V11Z" fill="white"/>
<path d="M72.6164 4.63634C73.1583 4.63634 73.6108 4.19387 73.6108 3.64202C73.6108 3.10012 73.1583 2.65268 72.6164 2.65268C72.0696 2.65268 71.6221 3.10012 71.6221 3.64202C71.6221 4.19387 72.0696 4.63634 72.6164 4.63634ZM72.6164 9.73719C73.1583 9.73719 73.6108 9.29472 73.6108 8.74288C73.6108 8.20097 73.1583 7.75353 72.6164 7.75353C72.0696 7.75353 71.6221 8.20097 71.6221 8.74288C71.6221 9.29472 72.0696 9.73719 72.6164 9.73719Z" fill="white"/>
<path d="M80.2864 11L81.221 8.30538H85.1983L86.128 11H87.7587L84.0946 0.81816H82.3197L78.6557 11H80.2864ZM81.6685 7.01276L83.1699 2.66759H83.2494L84.7508 7.01276H81.6685Z" fill="white"/>
<path d="M92.1958 3.36361H90.6298V1.53407H89.1432V3.36361H88.0246V4.5568H89.1432V9.06603C89.1383 10.4531 90.1972 11.1243 91.3705 11.0994C91.8428 11.0944 92.161 11.0049 92.335 10.9403L92.0665 9.71234C91.9671 9.73222 91.7832 9.77697 91.5445 9.77697C91.0623 9.77697 90.6298 9.61788 90.6298 8.75779V4.5568H92.1958V3.36361Z" fill="white"/>
<path d="M97.4048 3.36361H95.8387V1.53407H94.3522V3.36361H93.2336V4.5568H94.3522V9.06603C94.3473 10.4531 95.4062 11.1243 96.5795 11.0994C97.0518 11.0944 97.37 11.0049 97.544 10.9403L97.2755 9.71234C97.1761 9.73222 96.9921 9.77697 96.7535 9.77697C96.2713 9.77697 95.8387 9.61788 95.8387 8.75779V4.5568H97.4048V3.36361Z" fill="white"/>
<path d="M101.271 11.169C102.534 11.169 103.245 10.5277 103.529 9.95594H103.588V11H105.04V5.92896C105.04 3.70665 103.29 3.26418 102.077 3.26418C100.695 3.26418 99.422 3.821 98.9249 5.21305L100.322 5.53123C100.541 4.98932 101.097 4.46731 102.097 4.46731C103.056 4.46731 103.548 4.96944 103.548 5.83449V5.8693C103.548 6.4112 102.992 6.40126 101.619 6.56035C100.173 6.72938 98.6912 7.10722 98.6912 8.84231C98.6912 10.3437 99.8197 11.169 101.271 11.169ZM101.595 9.97583C100.754 9.97583 100.148 9.59799 100.148 8.86219C100.148 8.06674 100.854 7.78336 101.714 7.66901C102.196 7.60438 103.34 7.47512 103.553 7.26134V8.24572C103.553 9.15055 102.833 9.97583 101.595 9.97583Z" fill="white"/>
<path d="M110.236 11.1541C112.041 11.1541 113.209 10.0703 113.374 8.58379H111.927C111.738 9.40907 111.097 9.89629 110.246 9.89629C108.989 9.89629 108.178 8.84728 108.178 7.1818C108.178 5.54614 109.004 4.51702 110.246 4.51702C111.191 4.51702 111.768 5.11361 111.927 5.82952H113.374C113.214 4.28833 111.957 3.26418 110.222 3.26418C108.069 3.26418 106.677 4.88492 106.677 7.2166C106.677 9.51844 108.019 11.1541 110.236 11.1541Z" fill="white"/>
<path d="M114.963 11H116.45V8.29046L117.19 7.54969L119.786 11H121.61L118.309 6.63989L121.401 3.36361H119.622L116.579 6.59515H116.45V0.81816H114.963V11Z" fill="white"/>
<rect x="70.5" y="39.5" width="27.8" height="27.8" rx="1.5" stroke="#929292"/>
<path d="M83.8486 58.2H84.9566V51.5011L87.5176 54.0622L88.2762 53.2951L84.4026 49.4216L80.5205 53.2951L81.2961 54.0622L83.8486 51.5011V58.2Z" fill="white"/>
<rect x="70.7" y="74.7" width="27.8" height="27.8" rx="1.5" stroke="#929292"/>
<path d="M85.1566 84.6727H84.0487V91.3716L81.4876 88.8105L80.7291 89.5775L84.6026 93.4511L88.4847 89.5775L87.7092 88.8105L85.1566 91.3716V84.6727Z" fill="white"/>
<rect x="105.9" y="74.7" width="27.8" height="27.8" rx="1.5" stroke="#929292"/>
<path d="M120.769 93.5576L124.745 89.5818L120.769 85.6059L120.002 86.3687L122.666 89.0278H115.975V90.1358H122.666L120.002 92.7991L120.769 93.5576Z" fill="white"/>
<rect y="74.2" width="28.8" height="28.8" rx="2" fill="#2339FF"/>
<path d="M12.3384 87.4923C12.0898 85.9369 10.8718 85.0278 9.33413 85.0278C7.45203 85.0278 6.06353 86.4376 6.06353 88.7636C6.06353 91.0896 7.44492 92.4994 9.33413 92.4994C10.9321 92.4994 12.1005 91.498 12.3384 90.0598L11.2304 90.0562C11.0422 90.9866 10.261 91.498 9.34123 91.498C8.09478 91.498 7.15373 90.5427 7.15373 88.7636C7.15373 86.9987 8.09123 86.0292 9.34478 86.0292C10.2716 86.0292 11.0493 86.5512 11.2304 87.4923H12.3384ZM16.1124 86.9454H14.9938V85.6386H13.932V86.9454H13.133V87.7977H13.932V91.0186C13.9284 92.0093 14.6848 92.4887 15.5229 92.471C15.8602 92.4674 16.0875 92.4035 16.2118 92.3573L16.02 91.4802C15.949 91.4944 15.8176 91.5264 15.6472 91.5264C15.3027 91.5264 14.9938 91.4127 14.9938 90.7984V87.7977H16.1124V86.9454ZM17.2869 92.4H18.3487V89.069C18.3487 88.3552 18.8991 87.8403 19.652 87.8403C19.8721 87.8403 20.1207 87.8794 20.2059 87.9042V86.8886C20.0994 86.8744 19.8899 86.8637 19.7549 86.8637C19.1157 86.8637 18.5689 87.226 18.37 87.8119H18.3132V86.9454H17.2869V92.4ZM22.1866 85.1272H21.1248V92.4H22.1866V85.1272Z" fill="white"/>
<rect x="35.5" y="74.7" width="27.8" height="27.8" rx="1.5" stroke="#929292"/>
<path d="M48.8359 93.5576L49.603 92.7948L46.9396 90.1358H53.63V89.0278H46.9396L49.603 86.3645L48.8359 85.6059L44.8601 89.5818L48.8359 93.5576Z" fill="white"/>
</svg>
